<svg width="344" height="353" viewBox="0 0 344 353" fill="none" xmlns="http://www.w3.org/2000/svg">
<path d="M117.804 157.516C117.804 157.516 117.289 157.758 115.192 158.01C114.159 158.135 113.629 157.898 113.594 157.807C113.42 157.362 113.792 156.878 114.126 156.618C118.106 153.518 198.578 115.458 223.132 101.773C225.029 100.716 225.848 100.219 227.903 99.1308C243.944 90.6334 260.056 82.0977 277.864 84.0328C300.606 86.5055 314.326 104.77 315.333 106.155C317.833 109.59 326.089 121.294 325.574 138.107C325.531 139.507 324.586 159.925 308.384 174.466C298.587 183.258 286.871 192.439 280.403 193.967C214.355 209.563 248.216 202.1 203.1 210.635C180.437 214.921 121.149 222.044 108.563 224.934C107.283 225.227 106.194 225.514 103.988 225.947C85.1699 229.64 88.1353 229.028 87.3488 229.127C87.1082 229.156 86.6424 229.265 85.9846 229.106C85.2366 228.927 84.4142 228.37 84.4238 227.838C84.4372 226.982 86.5742 226.378 87.2213 226.188C92.7296 224.574 97.7504 221.589 103.148 219.633C104.141 219.272 113.048 215.992 121.215 210.417C122.496 209.543 124.687 207.979 124.38 206.66C124.009 205.072 120.224 204.727 119.628 204.681C115.968 204.387 113.099 205.771 112.721 205.95C100.479 211.764 7.88482 236.097 3.4745 238.475C3.39126 238.521 2.70732 238.899 1.73085 239.03C0.7241 239.166 0.680022 238.242 0.52151 237.746C0.272808 236.968 1.80146 236.195 2.70172 235.702C121.416 170.956 126.604 165.571 139.129 159.884C139.243 159.833 139.967 159.504 140.828 158.9C143.451 157.061 146.461 153.295 145.339 151.115C144.26 149.016 141.285 150.192 141.106 150.25C139.354 150.808 136.971 151.512 136.448 151.743C127.207 155.848 122.302 155.874 117.8 157.511L117.804 157.516Z" fill="#D9D9D9"/>
<path d="M166.258 143.611C164.634 138.735 209.162 120.287 232.271 106.518C233.007 106.08 234.968 104.901 237.692 103.483C241.032 101.744 251.673 96.1993 260.473 94.862C276.771 92.3826 291.046 103.677 292.771 105.08C294.251 106.284 313.079 122.146 309.755 146.093C307.868 159.7 298.365 169.37 288.526 175.323C276.14 182.815 260.308 183.399 256.42 184.264C255.321 184.51 251.087 183.852 245.466 184.388C241.808 184.737 239.098 185.311 238.102 185.518C218.178 189.689 159.01 199.917 155.863 201.421C155.724 201.487 155.005 201.867 154.082 201.784C153.612 201.741 152.601 201.549 152.407 201.121C151.461 198.995 169.364 188.155 173.261 186.456C173.365 186.41 173.857 186.198 174.418 185.765C175.987 184.554 177.205 182.284 176.626 181.152C175.935 179.798 172.714 180.158 170.811 180.404C158.909 181.929 148.049 185.3 146.891 185.658C145.314 186.145 148.51 185.134 132.326 189.544C118.386 193.343 104.209 196.328 90.4626 200.773C88.0423 201.555 86.7412 201.796 84.1379 202.273C82.8644 202.507 82.8198 202.473 82.808 202.45C82.524 201.784 103.346 192.555 126.245 181.748C142.011 174.305 153.634 168.778 174.082 158.376C194.838 147.817 194.577 148.168 195.597 147.71C195.784 147.625 196.747 147.335 197.432 146.521C198.207 145.601 198.407 143.974 197.678 143.05C197.041 142.244 195.879 142.208 194.497 142.254C189.77 142.414 186.867 143.243 186.867 143.243C184.523 143.913 178.066 145.703 171.407 144.94C168.137 144.565 166.502 144.38 166.246 143.608L166.258 143.611Z" fill="#FCFCFC"/>
<path d="M308.124 157.705C296.554 179.702 269.343 188.155 247.346 176.585C225.349 165.016 216.896 137.805 228.466 115.808C240.036 93.8106 267.247 85.3575 289.244 96.9271C311.241 108.497 319.694 135.708 308.124 157.705Z" fill="#BAB8B8"/>
<path opacity="0.5" d="M235.661 122.927C237.818 118.827 240.666 115.329 243.988 112.497C242.622 121.735 245.59 130.516 251.171 137.584C255.042 142.738 260.299 147.235 267.111 149.433C279.089 153.654 292.688 152.156 302.067 142.899C301.63 147.287 300.355 151.667 298.176 155.811C289.095 173.076 267.74 179.71 250.475 170.629C233.211 161.549 226.577 140.193 235.657 122.929L235.661 122.927Z" fill="#797878"/>
<path opacity="0.5" d="M275.979 122.152C272.983 127.848 265.936 130.037 260.239 127.041C254.543 124.045 252.353 116.998 255.35 111.301C258.346 105.604 265.393 103.415 271.09 106.412C276.786 109.408 278.976 116.455 275.979 122.152Z" fill="#797878"/>
<path opacity="0.5" d="M295.715 136.315C294.009 139.56 289.995 140.807 286.75 139.1C283.505 137.394 282.258 133.38 283.965 130.135C285.672 126.89 289.686 125.643 292.93 127.35C296.175 129.057 297.422 133.07 295.715 136.315Z" fill="#797878"/>
<path opacity="0.5" d="M290.95 116.86C290.033 118.605 287.874 119.275 286.13 118.358C284.385 117.44 283.715 115.282 284.633 113.538C285.55 111.793 287.708 111.123 289.453 112.04C291.197 112.958 291.868 115.116 290.95 116.86Z" fill="#797878"/>
</svg>
