<svg width="187" height="235" viewBox="0 0 187 235" fill="none" xmlns="http://www.w3.org/2000/svg">
<path opacity="0.5" d="M86.936 9.26354C73.8122 6.0218 60.6577 5.45641 48.0401 7.21485C70.8476 22.1367 84.2454 45.6291 88.8507 71.5127C92.5935 89.9485 92.2136 110.133 83.8055 129.255C69.8038 163.564 40.1721 190.331 1.79708 192.851C12.2229 200.4 24.2433 206.114 37.5055 209.39C92.767 223.04 148.633 189.306 162.283 134.045C175.933 78.7833 142.2 22.9174 86.9382 9.26714L86.936 9.26354Z" fill="#F9EFC7"/>
<path d="M75.2657 206.29C83.1193 202.597 87.4752 195.327 84.995 190.053C82.5148 184.779 74.1376 183.497 66.2841 187.19C58.4305 190.883 54.0746 198.153 56.5548 203.427C59.035 208.701 67.4122 209.983 75.2657 206.29Z" fill="#E2D9B3"/>
<path d="M102.755 45.0412C107.122 43.2709 108.526 36.5645 105.89 30.0621C103.255 23.5596 97.5775 19.7235 93.2101 21.4938C88.8427 23.2641 87.4389 29.9705 90.0747 36.473C92.7104 42.9754 98.3876 46.8116 102.755 45.0412Z" fill="#E2D9B3"/>
<path d="M148.33 145.34C153.042 145.393 156.992 133.706 157.153 119.238C157.313 104.77 153.623 92.9984 148.911 92.9461C144.198 92.8939 140.248 104.58 140.088 119.049C139.928 133.517 143.618 145.288 148.33 145.34Z" fill="#E2D9B3"/>
<path d="M99.2558 145.918C103.746 138.331 104.055 130.209 99.9474 127.778C95.8394 125.348 88.8695 129.528 84.3797 137.115C79.8898 144.703 79.5801 152.824 83.6881 155.255C87.796 157.686 94.7659 153.506 99.2558 145.918Z" fill="#E2D9B3"/>
<path d="M130.5 85.7999C136.345 83.829 139.765 78.3226 138.139 73.5011C136.513 68.6795 130.457 66.3686 124.612 68.3395C118.768 70.3105 115.348 75.8169 116.974 80.6384C118.6 85.46 124.656 87.7709 130.5 85.7999Z" fill="#E2D9B3"/>
<path opacity="0.5" d="M86.936 9.26354C73.8122 6.0218 60.6577 5.45641 48.0401 7.21485C70.8476 22.1367 84.2454 45.6291 88.8507 71.5127C92.5935 89.9485 92.2136 110.133 83.8055 129.255C69.8038 163.564 40.1721 190.331 1.79708 192.851C12.2229 200.4 24.2433 206.114 37.5055 209.39C92.767 223.04 148.633 189.306 162.283 134.045C175.933 78.7833 142.2 22.9174 86.9382 9.26714L86.936 9.26354Z" fill="#F9EFC7"/>
<path d="M75.2657 206.29C83.1193 202.597 87.4752 195.327 84.995 190.053C82.5148 184.779 74.1376 183.497 66.2841 187.19C58.4305 190.883 54.0746 198.153 56.5548 203.427C59.035 208.701 67.4122 209.983 75.2657 206.29Z" fill="#E2D9B3"/>
<path d="M102.755 45.0412C107.122 43.2709 108.526 36.5645 105.89 30.0621C103.255 23.5596 97.5775 19.7235 93.2101 21.4938C88.8427 23.2641 87.4389 29.9705 90.0747 36.473C92.7104 42.9754 98.3876 46.8116 102.755 45.0412Z" fill="#E2D9B3"/>
<path d="M148.33 145.34C153.042 145.393 156.992 133.706 157.153 119.238C157.313 104.77 153.623 92.9984 148.911 92.9461C144.198 92.8939 140.248 104.58 140.088 119.049C139.928 133.517 143.618 145.288 148.33 145.34Z" fill="#E2D9B3"/>
<path d="M99.2558 145.918C103.746 138.331 104.055 130.209 99.9474 127.778C95.8394 125.348 88.8695 129.528 84.3797 137.115C79.8898 144.703 79.5801 152.824 83.6881 155.255C87.796 157.686 94.7659 153.506 99.2558 145.918Z" fill="#E2D9B3"/>
<path d="M130.5 85.7999C136.345 83.829 139.765 78.3226 138.139 73.5011C136.513 68.6795 130.457 66.3686 124.612 68.3395C118.768 70.3105 115.348 75.8169 116.974 80.6384C118.6 85.46 124.656 87.7709 130.5 85.7999Z" fill="#E2D9B3"/>
<path opacity="0.5" d="M86.936 9.26354C73.8122 6.0218 60.6577 5.45641 48.0401 7.21485C70.8476 22.1367 84.2454 45.6291 88.8507 71.5127C92.5935 89.9485 92.2136 110.133 83.8055 129.255C69.8038 163.564 40.1721 190.331 1.79708 192.851C12.2229 200.4 24.2433 206.114 37.5055 209.39C92.767 223.04 148.633 189.306 162.283 134.045C175.933 78.7833 142.2 22.9174 86.9382 9.26714L86.936 9.26354Z" fill="#F9EFC7"/>
<path d="M75.2657 206.29C83.1193 202.597 87.4752 195.327 84.995 190.053C82.5148 184.779 74.1376 183.497 66.2841 187.19C58.4305 190.883 54.0746 198.153 56.5548 203.427C59.035 208.701 67.4122 209.983 75.2657 206.29Z" fill="#E2D9B3"/>
<path d="M102.755 45.0412C107.122 43.2709 108.526 36.5645 105.89 30.0621C103.255 23.5596 97.5775 19.7235 93.2101 21.4938C88.8427 23.2641 87.4389 29.9705 90.0747 36.473C92.7104 42.9754 98.3876 46.8116 102.755 45.0412Z" fill="#E2D9B3"/>
<path d="M148.33 145.34C153.042 145.393 156.992 133.706 157.153 119.238C157.313 104.77 153.623 92.9984 148.911 92.9461C144.198 92.8939 140.248 104.58 140.088 119.049C139.928 133.517 143.618 145.288 148.33 145.34Z" fill="#E2D9B3"/>
<path d="M99.2558 145.918C103.746 138.331 104.055 130.209 99.9474 127.778C95.8394 125.348 88.8695 129.528 84.3797 137.115C79.8898 144.703 79.5801 152.824 83.6881 155.255C87.796 157.686 94.7659 153.506 99.2558 145.918Z" fill="#E2D9B3"/>
<path d="M130.5 85.7999C136.345 83.829 139.765 78.3226 138.139 73.5011C136.513 68.6795 130.457 66.3686 124.612 68.3395C118.768 70.3105 115.348 75.8169 116.974 80.6384C118.6 85.46 124.656 87.7709 130.5 85.7999Z" fill="#E2D9B3"/>
<path opacity="0.5" d="M86.936 9.26354C73.8122 6.0218 60.6577 5.45641 48.0401 7.21485C70.8476 22.1367 84.2454 45.6291 88.8507 71.5127C92.5935 89.9485 92.2136 110.133 83.8055 129.255C69.8038 163.564 40.1721 190.331 1.79708 192.851C12.2229 200.4 24.2433 206.114 37.5055 209.39C92.767 223.04 148.633 189.306 162.283 134.045C175.933 78.7833 142.2 22.9174 86.9382 9.26714L86.936 9.26354Z" fill="#F9EFC7"/>
<path d="M75.2657 206.29C83.1193 202.597 87.4752 195.327 84.995 190.053C82.5148 184.779 74.1376 183.497 66.2841 187.19C58.4305 190.883 54.0746 198.153 56.5548 203.427C59.035 208.701 67.4122 209.983 75.2657 206.29Z" fill="#E2D9B3"/>
<path d="M102.755 45.0412C107.122 43.2709 108.526 36.5645 105.89 30.0621C103.255 23.5596 97.5775 19.7235 93.2101 21.4938C88.8427 23.2641 87.4389 29.9705 90.0747 36.473C92.7104 42.9754 98.3876 46.8116 102.755 45.0412Z" fill="#E2D9B3"/>
<path d="M148.33 145.34C153.042 145.393 156.992 133.706 157.153 119.238C157.313 104.77 153.623 92.9984 148.911 92.9461C144.198 92.8939 140.248 104.58 140.088 119.049C139.928 133.517 143.618 145.288 148.33 145.34Z" fill="#E2D9B3"/>
<path d="M99.2558 145.918C103.746 138.331 104.055 130.209 99.9474 127.778C95.8394 125.348 88.8695 129.528 84.3797 137.115C79.8898 144.703 79.5801 152.824 83.6881 155.255C87.796 157.686 94.7659 153.506 99.2558 145.918Z" fill="#E2D9B3"/>
<path d="M130.5 85.7999C136.345 83.829 139.765 78.3226 138.139 73.5011C136.513 68.6795 130.457 66.3686 124.612 68.3395C118.768 70.3105 115.348 75.8169 116.974 80.6384C118.6 85.46 124.656 87.7709 130.5 85.7999Z" fill="#E2D9B3"/>
</svg>
