<svg width="240" height="145" viewBox="0 0 240 145" fill="none" xmlns="http://www.w3.org/2000/svg">
<ellipse cx="26.3215" cy="14.7222" rx="26.3215" ry="14.7222" transform="matrix(0.109472 -0.99399 -0.99399 -0.109472 120.111 129.061)" fill="#DDDDDD" fill-opacity="0.866667"/>
<ellipse cx="34.3885" cy="18.9155" rx="34.3885" ry="18.9155" transform="matrix(0.99454 0.104361 0.104361 -0.99454 60.2115 82.908)" fill="#DDDDDD" fill-opacity="0.866667"/>
<ellipse cx="26.3215" cy="38.631" rx="26.3215" ry="38.631" transform="matrix(0.99454 0.104361 0.104361 -0.99454 52.3312 151.75)" fill="#DDDDDD" fill-opacity="0.866667"/>
<ellipse cx="26.3215" cy="38.631" rx="26.3215" ry="38.631" transform="matrix(-0.359251 -0.933241 -0.933241 0.359251 104.297 101.496)" fill="#DDDDDD" fill-opacity="0.866667"/>
<ellipse cx="26.3215" cy="38.631" rx="26.3215" ry="38.631" transform="matrix(-0.794252 -0.607588 -0.607588 0.794252 91.7347 117.748)" fill="#DDDDDD" fill-opacity="0.866667"/>
<path fill-rule="evenodd" clip-rule="evenodd" d="M218.842 31.4266C221.667 28.2326 219.454 23.1949 215.191 23.1148L184.426 22.5369C182.987 22.5099 181.729 23.0748 180.822 23.9738C179.49 23.2062 177.824 23.0604 176.309 23.7258L126.024 45.8152C125.515 45.5535 124.946 45.3741 124.329 45.2994L102.854 42.7015C98.6035 42.1872 95.715 46.9053 98.1059 50.4573L110.185 68.4021C111.633 70.5533 114.32 71.1237 116.434 70.1523L114.691 73.2673L116.681 73.7392C115.165 74.8726 114.306 76.8423 114.803 78.9181L119.848 99.9531C120.846 104.117 126.275 105.181 128.772 101.703L141.386 84.1302C141.97 83.3161 142.269 82.4107 142.32 81.5113L192.09 59.6484C193.605 58.9828 194.625 57.6567 194.96 56.1566C196.235 56.0967 197.502 55.5518 198.456 54.4739L218.842 31.4266Z" fill="#CECECE"/>
<rect width="39.3011" height="18.5787" transform="matrix(-0.402189 -0.915557 -0.915557 0.402189 160.152 73.5081)" fill="#DD3A2F"/>
<ellipse cx="9.28934" cy="12.1476" rx="9.28934" ry="12.1476" transform="matrix(-0.402189 -0.915557 -0.915557 0.402189 187.9 49.6133)" fill="#EAE9E9"/>
</svg>
